<mxfile host="app.diagrams.net" agent="Mozilla/5.0 (Windows NT 10.0; Win64; x64) AppleWebKit/537.36 (KHTML, like Gecko) Chrome/133.0.0.0 Safari/537.36" version="26.0.16">
  <diagram name="Page-1" id="dUJVT-WQlwhJx_uKo0oB">
    <mxGraphModel dx="2156" dy="583" grid="1" gridSize="10" guides="1" tooltips="1" connect="1" arrows="1" fold="1" page="1" pageScale="1" pageWidth="850" pageHeight="1100" math="0" shadow="0">
      <root>
        <mxCell id="0" />
        <mxCell id="1" parent="0" />
        <mxCell id="4L6pKNZTm_Mj8XsBQi4F-1" value="&lt;font size=&quot;3&quot;&gt;USER&lt;/font&gt;" style="rounded=0;whiteSpace=wrap;html=1;labelBackgroundColor=none;fillColor=#FAE5C7;strokeColor=#0F8B8D;fontColor=#143642;" parent="1" vertex="1">
          <mxGeometry x="60" y="210" width="120" height="60" as="geometry" />
        </mxCell>
        <mxCell id="4L6pKNZTm_Mj8XsBQi4F-6" value="&lt;u&gt;USER_ID&lt;/u&gt;" style="ellipse;whiteSpace=wrap;html=1;labelBackgroundColor=none;fillColor=#FAE5C7;strokeColor=#0F8B8D;fontColor=#143642;" parent="1" vertex="1">
          <mxGeometry x="-10" y="330" width="120" height="80" as="geometry" />
        </mxCell>
        <mxCell id="4L6pKNZTm_Mj8XsBQi4F-7" value="NAME" style="ellipse;whiteSpace=wrap;html=1;labelBackgroundColor=none;fillColor=#FAE5C7;strokeColor=#0F8B8D;fontColor=#143642;" parent="1" vertex="1">
          <mxGeometry x="130" y="330" width="120" height="80" as="geometry" />
        </mxCell>
        <mxCell id="4L6pKNZTm_Mj8XsBQi4F-9" value="EMAIL" style="ellipse;whiteSpace=wrap;html=1;labelBackgroundColor=none;fillColor=#FAE5C7;strokeColor=#0F8B8D;fontColor=#143642;" parent="1" vertex="1">
          <mxGeometry x="230" y="240" width="120" height="80" as="geometry" />
        </mxCell>
        <mxCell id="4L6pKNZTm_Mj8XsBQi4F-11" value="PASSWORD" style="ellipse;whiteSpace=wrap;html=1;labelBackgroundColor=none;fillColor=#FAE5C7;strokeColor=#0F8B8D;fontColor=#143642;" parent="1" vertex="1">
          <mxGeometry x="220" y="130" width="120" height="80" as="geometry" />
        </mxCell>
        <mxCell id="4L6pKNZTm_Mj8XsBQi4F-12" value="" style="endArrow=none;html=1;rounded=0;exitX=0.425;exitY=0.008;exitDx=0;exitDy=0;exitPerimeter=0;entryX=0;entryY=1;entryDx=0;entryDy=0;labelBackgroundColor=none;strokeColor=#A8201A;fontColor=default;" parent="1" source="4L6pKNZTm_Mj8XsBQi4F-6" target="4L6pKNZTm_Mj8XsBQi4F-1" edge="1">
          <mxGeometry width="50" height="50" relative="1" as="geometry">
            <mxPoint x="20" y="320" as="sourcePoint" />
            <mxPoint x="70" y="270" as="targetPoint" />
          </mxGeometry>
        </mxCell>
        <mxCell id="4L6pKNZTm_Mj8XsBQi4F-13" value="" style="endArrow=none;html=1;rounded=0;labelBackgroundColor=none;strokeColor=#A8201A;fontColor=default;" parent="1" source="4L6pKNZTm_Mj8XsBQi4F-7" edge="1">
          <mxGeometry width="50" height="50" relative="1" as="geometry">
            <mxPoint x="100" y="320" as="sourcePoint" />
            <mxPoint x="150" y="270" as="targetPoint" />
          </mxGeometry>
        </mxCell>
        <mxCell id="4L6pKNZTm_Mj8XsBQi4F-14" value="" style="endArrow=none;html=1;rounded=0;labelBackgroundColor=none;strokeColor=#A8201A;fontColor=default;" parent="1" source="4L6pKNZTm_Mj8XsBQi4F-9" edge="1">
          <mxGeometry width="50" height="50" relative="1" as="geometry">
            <mxPoint x="130" y="290" as="sourcePoint" />
            <mxPoint x="180" y="240" as="targetPoint" />
          </mxGeometry>
        </mxCell>
        <mxCell id="4L6pKNZTm_Mj8XsBQi4F-15" value="" style="endArrow=none;html=1;rounded=0;entryX=0;entryY=0.625;entryDx=0;entryDy=0;entryPerimeter=0;labelBackgroundColor=none;strokeColor=#A8201A;fontColor=default;" parent="1" target="4L6pKNZTm_Mj8XsBQi4F-11" edge="1">
          <mxGeometry width="50" height="50" relative="1" as="geometry">
            <mxPoint x="180" y="210" as="sourcePoint" />
            <mxPoint x="230" y="160" as="targetPoint" />
          </mxGeometry>
        </mxCell>
        <mxCell id="4L6pKNZTm_Mj8XsBQi4F-16" value="" style="ellipse;whiteSpace=wrap;html=1;labelBackgroundColor=none;fillColor=#FAE5C7;strokeColor=#0F8B8D;fontColor=#143642;" parent="1" vertex="1">
          <mxGeometry x="60" y="80" width="120" height="80" as="geometry" />
        </mxCell>
        <mxCell id="4L6pKNZTm_Mj8XsBQi4F-17" value="" style="endArrow=none;html=1;rounded=0;labelBackgroundColor=none;strokeColor=#A8201A;fontColor=default;entryX=0.5;entryY=1;entryDx=0;entryDy=0;" parent="1" source="4L6pKNZTm_Mj8XsBQi4F-1" target="4L6pKNZTm_Mj8XsBQi4F-16" edge="1">
          <mxGeometry width="50" height="50" relative="1" as="geometry">
            <mxPoint x="70" y="220" as="sourcePoint" />
            <mxPoint x="120" y="170" as="targetPoint" />
          </mxGeometry>
        </mxCell>
        <mxCell id="4L6pKNZTm_Mj8XsBQi4F-18" value="&lt;font style=&quot;font-size: 14px;&quot;&gt;BOOKING&lt;/font&gt;" style="rounded=0;whiteSpace=wrap;html=1;labelBackgroundColor=none;fillColor=#FAE5C7;strokeColor=#0F8B8D;fontColor=#143642;" parent="1" vertex="1">
          <mxGeometry x="1240" y="200" width="120" height="60" as="geometry" />
        </mxCell>
        <mxCell id="4L6pKNZTm_Mj8XsBQi4F-19" value="BOOKING ID&lt;span style=&quot;white-space: pre;&quot;&gt;&#x9;&lt;/span&gt;" style="ellipse;whiteSpace=wrap;html=1;fontStyle=4;labelBackgroundColor=none;fillColor=#FAE5C7;strokeColor=#0F8B8D;fontColor=#143642;" parent="1" vertex="1">
          <mxGeometry x="1440" y="310" width="120" height="80" as="geometry" />
        </mxCell>
        <mxCell id="4L6pKNZTm_Mj8XsBQi4F-20" value="" style="endArrow=none;html=1;rounded=0;labelBackgroundColor=none;strokeColor=#A8201A;fontColor=default;entryX=0.889;entryY=1.033;entryDx=0;entryDy=0;entryPerimeter=0;" parent="1" source="4L6pKNZTm_Mj8XsBQi4F-19" target="4L6pKNZTm_Mj8XsBQi4F-18" edge="1">
          <mxGeometry width="50" height="50" relative="1" as="geometry">
            <mxPoint x="790" y="305" as="sourcePoint" />
            <mxPoint x="840" y="255" as="targetPoint" />
          </mxGeometry>
        </mxCell>
        <mxCell id="4L6pKNZTm_Mj8XsBQi4F-21" value="USER ID" style="ellipse;whiteSpace=wrap;html=1;labelBackgroundColor=none;fillColor=#FAE5C7;strokeColor=#0F8B8D;fontColor=#143642;" parent="1" vertex="1">
          <mxGeometry x="1140" y="350" width="120" height="80" as="geometry" />
        </mxCell>
        <mxCell id="4L6pKNZTm_Mj8XsBQi4F-22" value="" style="endArrow=none;html=1;rounded=0;exitX=0.564;exitY=0.033;exitDx=0;exitDy=0;exitPerimeter=0;labelBackgroundColor=none;strokeColor=#A8201A;fontColor=default;entryX=0.25;entryY=1;entryDx=0;entryDy=0;" parent="1" source="4L6pKNZTm_Mj8XsBQi4F-21" target="4L6pKNZTm_Mj8XsBQi4F-18" edge="1">
          <mxGeometry width="50" height="50" relative="1" as="geometry">
            <mxPoint x="730" y="310" as="sourcePoint" />
            <mxPoint x="761" y="260" as="targetPoint" />
          </mxGeometry>
        </mxCell>
        <mxCell id="4L6pKNZTm_Mj8XsBQi4F-23" value="TURF ID" style="ellipse;whiteSpace=wrap;html=1;labelBackgroundColor=none;fillColor=#FAE5C7;strokeColor=#0F8B8D;fontColor=#143642;" parent="1" vertex="1">
          <mxGeometry x="995" y="260" width="120" height="80" as="geometry" />
        </mxCell>
        <mxCell id="4L6pKNZTm_Mj8XsBQi4F-24" value="" style="endArrow=none;html=1;rounded=0;exitX=1;exitY=0;exitDx=0;exitDy=0;labelBackgroundColor=none;strokeColor=#A8201A;fontColor=default;entryX=0;entryY=0.75;entryDx=0;entryDy=0;" parent="1" source="4L6pKNZTm_Mj8XsBQi4F-23" target="4L6pKNZTm_Mj8XsBQi4F-18" edge="1">
          <mxGeometry width="50" height="50" relative="1" as="geometry">
            <mxPoint x="660" y="260" as="sourcePoint" />
            <mxPoint x="1080" y="240" as="targetPoint" />
          </mxGeometry>
        </mxCell>
        <mxCell id="4L6pKNZTm_Mj8XsBQi4F-25" value="DATE" style="ellipse;whiteSpace=wrap;html=1;labelBackgroundColor=none;fillColor=#FAE5C7;strokeColor=#0F8B8D;fontColor=#143642;" parent="1" vertex="1">
          <mxGeometry x="1085" y="50" width="120" height="80" as="geometry" />
        </mxCell>
        <mxCell id="4L6pKNZTm_Mj8XsBQi4F-26" value="" style="endArrow=none;html=1;rounded=0;exitX=0.5;exitY=1;exitDx=0;exitDy=0;entryX=0;entryY=0;entryDx=0;entryDy=0;labelBackgroundColor=none;strokeColor=#A8201A;fontColor=default;" parent="1" source="4L6pKNZTm_Mj8XsBQi4F-25" target="4L6pKNZTm_Mj8XsBQi4F-18" edge="1">
          <mxGeometry width="50" height="50" relative="1" as="geometry">
            <mxPoint x="670" y="160" as="sourcePoint" />
            <mxPoint x="730" y="130" as="targetPoint" />
          </mxGeometry>
        </mxCell>
        <mxCell id="4L6pKNZTm_Mj8XsBQi4F-27" value="TIME" style="ellipse;whiteSpace=wrap;html=1;labelBackgroundColor=none;fillColor=#FAE5C7;strokeColor=#0F8B8D;fontColor=#143642;" parent="1" vertex="1">
          <mxGeometry x="1260" y="40" width="120" height="80" as="geometry" />
        </mxCell>
        <mxCell id="4L6pKNZTm_Mj8XsBQi4F-28" value="" style="endArrow=none;html=1;rounded=0;entryX=0.667;entryY=0.167;entryDx=0;entryDy=0;labelBackgroundColor=none;strokeColor=#A8201A;fontColor=default;exitX=0.5;exitY=1;exitDx=0;exitDy=0;entryPerimeter=0;" parent="1" source="4L6pKNZTm_Mj8XsBQi4F-27" target="4L6pKNZTm_Mj8XsBQi4F-18" edge="1">
          <mxGeometry width="50" height="50" relative="1" as="geometry">
            <mxPoint x="730" y="140" as="sourcePoint" />
            <mxPoint x="780" y="115" as="targetPoint" />
          </mxGeometry>
        </mxCell>
        <mxCell id="4L6pKNZTm_Mj8XsBQi4F-34" value="" style="endArrow=none;html=1;rounded=0;exitX=1;exitY=0.25;exitDx=0;exitDy=0;entryX=0;entryY=0.5;entryDx=0;entryDy=0;labelBackgroundColor=none;strokeColor=#A8201A;fontColor=default;" parent="1" source="4L6pKNZTm_Mj8XsBQi4F-1" target="4L6pKNZTm_Mj8XsBQi4F-32" edge="1">
          <mxGeometry width="50" height="50" relative="1" as="geometry">
            <mxPoint x="350" y="290" as="sourcePoint" />
            <mxPoint x="400" y="240" as="targetPoint" />
          </mxGeometry>
        </mxCell>
        <mxCell id="4L6pKNZTm_Mj8XsBQi4F-35" value="" style="endArrow=none;html=1;rounded=0;entryX=0;entryY=0.5;entryDx=0;entryDy=0;labelBackgroundColor=none;strokeColor=#A8201A;fontColor=default;" parent="1" source="4L6pKNZTm_Mj8XsBQi4F-32" target="4L6pKNZTm_Mj8XsBQi4F-18" edge="1">
          <mxGeometry width="50" height="50" relative="1" as="geometry">
            <mxPoint x="490" y="230" as="sourcePoint" />
            <mxPoint x="530" y="180" as="targetPoint" />
          </mxGeometry>
        </mxCell>
        <mxCell id="4L6pKNZTm_Mj8XsBQi4F-38" value="" style="endArrow=none;html=1;rounded=0;entryX=1;entryY=0;entryDx=0;entryDy=0;labelBackgroundColor=none;strokeColor=#A8201A;fontColor=default;exitX=0;exitY=1;exitDx=0;exitDy=0;" parent="1" source="WNPm-9dFzksZWUwtxoDa-30" target="4L6pKNZTm_Mj8XsBQi4F-18" edge="1">
          <mxGeometry width="50" height="50" relative="1" as="geometry">
            <mxPoint x="1486.1999999999998" y="151.5999999999999" as="sourcePoint" />
            <mxPoint x="870" y="220" as="targetPoint" />
          </mxGeometry>
        </mxCell>
        <mxCell id="4L6pKNZTm_Mj8XsBQi4F-39" value="&lt;font style=&quot;font-size: 14px;&quot;&gt;PAYMENTS&lt;/font&gt;" style="rounded=0;whiteSpace=wrap;html=1;labelBackgroundColor=none;fillColor=#FAE5C7;strokeColor=#0F8B8D;fontColor=#143642;" parent="1" vertex="1">
          <mxGeometry x="1255" y="680" width="120" height="60" as="geometry" />
        </mxCell>
        <mxCell id="4L6pKNZTm_Mj8XsBQi4F-40" value="HAS" style="rhombus;whiteSpace=wrap;html=1;labelBackgroundColor=none;fillColor=#FAE5C7;strokeColor=#0F8B8D;fontColor=#143642;rotation=0;" parent="1" vertex="1">
          <mxGeometry x="1270" y="475" width="90" height="90" as="geometry" />
        </mxCell>
        <mxCell id="4L6pKNZTm_Mj8XsBQi4F-43" value="" style="endArrow=none;html=1;rounded=0;exitX=0.5;exitY=0;exitDx=0;exitDy=0;entryX=0.611;entryY=1.012;entryDx=0;entryDy=0;entryPerimeter=0;labelBackgroundColor=none;strokeColor=#A8201A;fontColor=default;" parent="1" source="4L6pKNZTm_Mj8XsBQi4F-40" target="4L6pKNZTm_Mj8XsBQi4F-18" edge="1">
          <mxGeometry width="50" height="50" relative="1" as="geometry">
            <mxPoint x="798" y="480" as="sourcePoint" />
            <mxPoint x="792" y="256.64" as="targetPoint" />
          </mxGeometry>
        </mxCell>
        <mxCell id="4L6pKNZTm_Mj8XsBQi4F-44" value="" style="endArrow=none;html=1;rounded=0;entryX=0.5;entryY=1;entryDx=0;entryDy=0;exitX=0.5;exitY=0;exitDx=0;exitDy=0;labelBackgroundColor=none;strokeColor=#A8201A;fontColor=default;" parent="1" source="4L6pKNZTm_Mj8XsBQi4F-39" target="4L6pKNZTm_Mj8XsBQi4F-40" edge="1">
          <mxGeometry width="50" height="50" relative="1" as="geometry">
            <mxPoint x="740" y="620" as="sourcePoint" />
            <mxPoint x="790" y="570" as="targetPoint" />
          </mxGeometry>
        </mxCell>
        <mxCell id="4L6pKNZTm_Mj8XsBQi4F-45" value="" style="endArrow=none;html=1;rounded=0;entryX=0;entryY=1;entryDx=0;entryDy=0;exitX=0.5;exitY=0;exitDx=0;exitDy=0;labelBackgroundColor=none;strokeColor=#A8201A;fontColor=default;" parent="1" source="4L6pKNZTm_Mj8XsBQi4F-46" target="4L6pKNZTm_Mj8XsBQi4F-39" edge="1">
          <mxGeometry width="50" height="50" relative="1" as="geometry">
            <mxPoint x="690" y="830" as="sourcePoint" />
            <mxPoint x="740" y="780" as="targetPoint" />
          </mxGeometry>
        </mxCell>
        <mxCell id="4L6pKNZTm_Mj8XsBQi4F-46" value="&lt;u&gt;PAYMENT ID&lt;/u&gt;" style="ellipse;whiteSpace=wrap;html=1;labelBackgroundColor=none;fillColor=#FAE5C7;strokeColor=#0F8B8D;fontColor=#143642;" parent="1" vertex="1">
          <mxGeometry x="1090" y="770" width="120" height="80" as="geometry" />
        </mxCell>
        <mxCell id="4L6pKNZTm_Mj8XsBQi4F-47" value="BOOKING ID" style="ellipse;whiteSpace=wrap;html=1;labelBackgroundColor=none;fillColor=#FAE5C7;strokeColor=#0F8B8D;fontColor=#143642;" parent="1" vertex="1">
          <mxGeometry x="1255" y="840" width="120" height="80" as="geometry" />
        </mxCell>
        <mxCell id="4L6pKNZTm_Mj8XsBQi4F-48" value="" style="endArrow=none;html=1;rounded=0;exitX=0.5;exitY=0;exitDx=0;exitDy=0;labelBackgroundColor=none;strokeColor=#A8201A;fontColor=default;entryX=0.5;entryY=1;entryDx=0;entryDy=0;" parent="1" source="4L6pKNZTm_Mj8XsBQi4F-47" target="4L6pKNZTm_Mj8XsBQi4F-39" edge="1">
          <mxGeometry width="50" height="50" relative="1" as="geometry">
            <mxPoint x="790" y="830" as="sourcePoint" />
            <mxPoint x="795" y="780" as="targetPoint" />
          </mxGeometry>
        </mxCell>
        <mxCell id="4L6pKNZTm_Mj8XsBQi4F-50" value="" style="endArrow=none;dashed=1;html=1;dashPattern=1 3;strokeWidth=2;rounded=0;labelBackgroundColor=none;strokeColor=#A8201A;fontColor=default;" parent="1" edge="1">
          <mxGeometry width="50" height="50" relative="1" as="geometry">
            <mxPoint x="1260" y="890" as="sourcePoint" />
            <mxPoint x="1350" y="890" as="targetPoint" />
          </mxGeometry>
        </mxCell>
        <mxCell id="4L6pKNZTm_Mj8XsBQi4F-51" value="AMOUNT" style="ellipse;whiteSpace=wrap;html=1;labelBackgroundColor=none;fillColor=#FAE5C7;strokeColor=#0F8B8D;fontColor=#143642;" parent="1" vertex="1">
          <mxGeometry x="1490" y="800" width="120" height="80" as="geometry" />
        </mxCell>
        <mxCell id="4L6pKNZTm_Mj8XsBQi4F-52" value="" style="endArrow=none;html=1;rounded=0;exitX=1;exitY=1;exitDx=0;exitDy=0;entryX=0.5;entryY=0;entryDx=0;entryDy=0;labelBackgroundColor=none;strokeColor=#A8201A;fontColor=default;" parent="1" source="4L6pKNZTm_Mj8XsBQi4F-39" target="4L6pKNZTm_Mj8XsBQi4F-51" edge="1">
          <mxGeometry width="50" height="50" relative="1" as="geometry">
            <mxPoint x="850" y="790" as="sourcePoint" />
            <mxPoint x="930" y="827" as="targetPoint" />
          </mxGeometry>
        </mxCell>
        <mxCell id="4L6pKNZTm_Mj8XsBQi4F-53" value="PAYMENTS METHOD" style="ellipse;whiteSpace=wrap;html=1;labelBackgroundColor=none;fillColor=#FAE5C7;strokeColor=#0F8B8D;fontColor=#143642;" parent="1" vertex="1">
          <mxGeometry x="1110" y="590" width="120" height="80" as="geometry" />
        </mxCell>
        <mxCell id="4L6pKNZTm_Mj8XsBQi4F-54" value="" style="endArrow=none;html=1;rounded=0;entryX=0;entryY=0;entryDx=0;entryDy=0;exitX=1;exitY=1;exitDx=0;exitDy=0;labelBackgroundColor=none;strokeColor=#A8201A;fontColor=default;" parent="1" source="4L6pKNZTm_Mj8XsBQi4F-53" target="4L6pKNZTm_Mj8XsBQi4F-39" edge="1">
          <mxGeometry width="50" height="50" relative="1" as="geometry">
            <mxPoint x="700" y="720" as="sourcePoint" />
            <mxPoint x="750" y="670" as="targetPoint" />
          </mxGeometry>
        </mxCell>
        <mxCell id="4L6pKNZTm_Mj8XsBQi4F-55" value="STATUS" style="ellipse;whiteSpace=wrap;html=1;labelBackgroundColor=none;fillColor=#FAE5C7;strokeColor=#0F8B8D;fontColor=#143642;" parent="1" vertex="1">
          <mxGeometry x="1480" y="580" width="120" height="80" as="geometry" />
        </mxCell>
        <mxCell id="4L6pKNZTm_Mj8XsBQi4F-56" value="" style="endArrow=none;html=1;rounded=0;exitX=1;exitY=0;exitDx=0;exitDy=0;labelBackgroundColor=none;strokeColor=#A8201A;fontColor=default;" parent="1" source="4L6pKNZTm_Mj8XsBQi4F-39" target="4L6pKNZTm_Mj8XsBQi4F-55" edge="1">
          <mxGeometry width="50" height="50" relative="1" as="geometry">
            <mxPoint x="830" y="770" as="sourcePoint" />
            <mxPoint x="880" y="720" as="targetPoint" />
          </mxGeometry>
        </mxCell>
        <mxCell id="4L6pKNZTm_Mj8XsBQi4F-57" value="&lt;font style=&quot;font-size: 14px;&quot;&gt;REVIEW&lt;/font&gt;" style="rounded=0;whiteSpace=wrap;html=1;labelBackgroundColor=none;fillColor=#FAE5C7;strokeColor=#0F8B8D;fontColor=#143642;" parent="1" vertex="1">
          <mxGeometry x="60" y="720" width="120" height="60" as="geometry" />
        </mxCell>
        <mxCell id="4L6pKNZTm_Mj8XsBQi4F-58" value="WRITES" style="rhombus;whiteSpace=wrap;html=1;labelBackgroundColor=none;fillColor=#FAE5C7;strokeColor=#0F8B8D;fontColor=#143642;" parent="1" vertex="1">
          <mxGeometry x="80" y="485" width="80" height="80" as="geometry" />
        </mxCell>
        <mxCell id="4L6pKNZTm_Mj8XsBQi4F-59" value="" style="endArrow=none;html=1;rounded=0;exitX=0.5;exitY=0;exitDx=0;exitDy=0;labelBackgroundColor=none;strokeColor=#A8201A;fontColor=default;" parent="1" source="4L6pKNZTm_Mj8XsBQi4F-58" edge="1">
          <mxGeometry width="50" height="50" relative="1" as="geometry">
            <mxPoint x="120" y="480" as="sourcePoint" />
            <mxPoint x="120" y="270" as="targetPoint" />
          </mxGeometry>
        </mxCell>
        <mxCell id="4L6pKNZTm_Mj8XsBQi4F-60" value="" style="endArrow=none;html=1;rounded=0;exitX=0.5;exitY=0;exitDx=0;exitDy=0;entryX=0.5;entryY=1;entryDx=0;entryDy=0;labelBackgroundColor=none;strokeColor=#A8201A;fontColor=default;" parent="1" source="4L6pKNZTm_Mj8XsBQi4F-57" target="4L6pKNZTm_Mj8XsBQi4F-58" edge="1">
          <mxGeometry width="50" height="50" relative="1" as="geometry">
            <mxPoint x="70" y="610" as="sourcePoint" />
            <mxPoint x="120" y="570" as="targetPoint" />
          </mxGeometry>
        </mxCell>
        <mxCell id="4L6pKNZTm_Mj8XsBQi4F-61" value="&lt;u&gt;REVIEW ID&lt;/u&gt;" style="ellipse;whiteSpace=wrap;html=1;labelBackgroundColor=none;fillColor=#FAE5C7;strokeColor=#0F8B8D;fontColor=#143642;" parent="1" vertex="1">
          <mxGeometry x="-50" y="840" width="120" height="80" as="geometry" />
        </mxCell>
        <mxCell id="4L6pKNZTm_Mj8XsBQi4F-62" value="" style="endArrow=none;html=1;rounded=0;exitX=0.5;exitY=0;exitDx=0;exitDy=0;labelBackgroundColor=none;strokeColor=#A8201A;fontColor=default;" parent="1" source="4L6pKNZTm_Mj8XsBQi4F-61" edge="1">
          <mxGeometry width="50" height="50" relative="1" as="geometry">
            <mxPoint x="10" y="830" as="sourcePoint" />
            <mxPoint x="60" y="780" as="targetPoint" />
          </mxGeometry>
        </mxCell>
        <mxCell id="4L6pKNZTm_Mj8XsBQi4F-63" value="USER ID" style="ellipse;whiteSpace=wrap;html=1;labelBackgroundColor=none;fillColor=#FAE5C7;strokeColor=#0F8B8D;fontColor=#143642;" parent="1" vertex="1">
          <mxGeometry x="130" y="840" width="120" height="80" as="geometry" />
        </mxCell>
        <mxCell id="4L6pKNZTm_Mj8XsBQi4F-64" value="" style="endArrow=none;dashed=1;html=1;dashPattern=1 3;strokeWidth=2;rounded=0;labelBackgroundColor=none;strokeColor=#A8201A;fontColor=default;" parent="1" edge="1">
          <mxGeometry width="50" height="50" relative="1" as="geometry">
            <mxPoint x="150" y="898.5699999999999" as="sourcePoint" />
            <mxPoint x="230" y="898.5699999999999" as="targetPoint" />
            <Array as="points" />
          </mxGeometry>
        </mxCell>
        <mxCell id="4L6pKNZTm_Mj8XsBQi4F-65" value="" style="endArrow=none;html=1;rounded=0;entryX=0.669;entryY=0.987;entryDx=0;entryDy=0;entryPerimeter=0;labelBackgroundColor=none;strokeColor=#A8201A;fontColor=default;" parent="1" source="4L6pKNZTm_Mj8XsBQi4F-63" target="4L6pKNZTm_Mj8XsBQi4F-57" edge="1">
          <mxGeometry width="50" height="50" relative="1" as="geometry">
            <mxPoint x="70" y="830" as="sourcePoint" />
            <mxPoint x="120" y="780" as="targetPoint" />
          </mxGeometry>
        </mxCell>
        <mxCell id="4L6pKNZTm_Mj8XsBQi4F-67" value="TURF ID" style="ellipse;whiteSpace=wrap;html=1;labelBackgroundColor=none;fillColor=#FAE5C7;strokeColor=#0F8B8D;fontColor=#143642;" parent="1" vertex="1">
          <mxGeometry x="250" y="760" width="120" height="80" as="geometry" />
        </mxCell>
        <mxCell id="4L6pKNZTm_Mj8XsBQi4F-68" value="" style="endArrow=none;html=1;rounded=0;entryX=0.074;entryY=0.357;entryDx=0;entryDy=0;exitX=1;exitY=0.5;exitDx=0;exitDy=0;exitPerimeter=0;entryPerimeter=0;labelBackgroundColor=none;strokeColor=#A8201A;fontColor=default;" parent="1" source="4L6pKNZTm_Mj8XsBQi4F-57" target="4L6pKNZTm_Mj8XsBQi4F-67" edge="1">
          <mxGeometry width="50" height="50" relative="1" as="geometry">
            <mxPoint x="180" y="760" as="sourcePoint" />
            <mxPoint x="230" y="710" as="targetPoint" />
          </mxGeometry>
        </mxCell>
        <mxCell id="4L6pKNZTm_Mj8XsBQi4F-69" value="RATING" style="ellipse;whiteSpace=wrap;html=1;labelBackgroundColor=none;fillColor=#FAE5C7;strokeColor=#0F8B8D;fontColor=#143642;" parent="1" vertex="1">
          <mxGeometry x="220" y="650" width="120" height="80" as="geometry" />
        </mxCell>
        <mxCell id="4L6pKNZTm_Mj8XsBQi4F-70" value="" style="endArrow=none;html=1;rounded=0;entryX=0;entryY=0.5;entryDx=0;entryDy=0;labelBackgroundColor=none;strokeColor=#A8201A;fontColor=default;" parent="1" target="4L6pKNZTm_Mj8XsBQi4F-69" edge="1">
          <mxGeometry width="50" height="50" relative="1" as="geometry">
            <mxPoint x="180" y="720" as="sourcePoint" />
            <mxPoint x="230" y="670" as="targetPoint" />
          </mxGeometry>
        </mxCell>
        <mxCell id="4L6pKNZTm_Mj8XsBQi4F-71" value="COMMENT" style="ellipse;whiteSpace=wrap;html=1;labelBackgroundColor=none;fillColor=#FAE5C7;strokeColor=#0F8B8D;fontColor=#143642;" parent="1" vertex="1">
          <mxGeometry x="-110" y="710" width="120" height="80" as="geometry" />
        </mxCell>
        <mxCell id="4L6pKNZTm_Mj8XsBQi4F-74" value="" style="endArrow=none;html=1;rounded=0;entryX=0;entryY=0.5;entryDx=0;entryDy=0;labelBackgroundColor=none;strokeColor=#A8201A;fontColor=default;" parent="1" target="4L6pKNZTm_Mj8XsBQi4F-57" edge="1">
          <mxGeometry width="50" height="50" relative="1" as="geometry">
            <mxPoint x="10" y="750" as="sourcePoint" />
            <mxPoint x="60" y="700" as="targetPoint" />
          </mxGeometry>
        </mxCell>
        <mxCell id="4L6pKNZTm_Mj8XsBQi4F-76" value="&lt;font style=&quot;font-size: 14px;&quot;&gt;TURF&lt;/font&gt;" style="rounded=0;whiteSpace=wrap;html=1;labelBackgroundColor=none;fillColor=#FAE5C7;strokeColor=#0F8B8D;fontColor=#143642;" parent="1" vertex="1">
          <mxGeometry x="60" y="1370" width="120" height="60" as="geometry" />
        </mxCell>
        <mxCell id="4L6pKNZTm_Mj8XsBQi4F-77" value="FOR" style="rhombus;whiteSpace=wrap;html=1;labelBackgroundColor=none;fillColor=#FAE5C7;strokeColor=#0F8B8D;fontColor=#143642;" parent="1" vertex="1">
          <mxGeometry x="80" y="1080" width="80" height="80" as="geometry" />
        </mxCell>
        <mxCell id="4L6pKNZTm_Mj8XsBQi4F-78" value="" style="endArrow=none;html=1;rounded=0;exitX=0.5;exitY=0;exitDx=0;exitDy=0;entryX=0.5;entryY=1;entryDx=0;entryDy=0;labelBackgroundColor=none;strokeColor=#A8201A;fontColor=default;" parent="1" source="4L6pKNZTm_Mj8XsBQi4F-76" target="4L6pKNZTm_Mj8XsBQi4F-77" edge="1">
          <mxGeometry width="50" height="50" relative="1" as="geometry">
            <mxPoint x="70" y="1250" as="sourcePoint" />
            <mxPoint x="120" y="1200" as="targetPoint" />
          </mxGeometry>
        </mxCell>
        <mxCell id="4L6pKNZTm_Mj8XsBQi4F-79" value="" style="endArrow=none;html=1;rounded=0;exitX=0.5;exitY=0;exitDx=0;exitDy=0;labelBackgroundColor=none;strokeColor=#A8201A;fontColor=default;" parent="1" source="4L6pKNZTm_Mj8XsBQi4F-77" edge="1">
          <mxGeometry width="50" height="50" relative="1" as="geometry">
            <mxPoint x="70" y="830" as="sourcePoint" />
            <mxPoint x="120" y="780" as="targetPoint" />
          </mxGeometry>
        </mxCell>
        <mxCell id="4L6pKNZTm_Mj8XsBQi4F-81" value="&lt;u&gt;TURF ID&lt;/u&gt;" style="ellipse;whiteSpace=wrap;html=1;labelBackgroundColor=none;fillColor=#FAE5C7;strokeColor=#0F8B8D;fontColor=#143642;" parent="1" vertex="1">
          <mxGeometry x="-70" y="1480" width="120" height="80" as="geometry" />
        </mxCell>
        <mxCell id="4L6pKNZTm_Mj8XsBQi4F-82" value="" style="endArrow=none;html=1;rounded=0;exitX=0.5;exitY=0;exitDx=0;exitDy=0;labelBackgroundColor=none;strokeColor=#A8201A;fontColor=default;" parent="1" source="4L6pKNZTm_Mj8XsBQi4F-81" edge="1">
          <mxGeometry width="50" height="50" relative="1" as="geometry">
            <mxPoint x="10" y="1480" as="sourcePoint" />
            <mxPoint x="60" y="1430" as="targetPoint" />
          </mxGeometry>
        </mxCell>
        <mxCell id="4L6pKNZTm_Mj8XsBQi4F-83" value="NAME" style="ellipse;whiteSpace=wrap;html=1;labelBackgroundColor=none;fillColor=#FAE5C7;strokeColor=#0F8B8D;fontColor=#143642;" parent="1" vertex="1">
          <mxGeometry x="70" y="1510" width="120" height="80" as="geometry" />
        </mxCell>
        <mxCell id="4L6pKNZTm_Mj8XsBQi4F-84" value="" style="endArrow=none;html=1;rounded=0;exitX=0.419;exitY=0.014;exitDx=0;exitDy=0;exitPerimeter=0;labelBackgroundColor=none;strokeColor=#A8201A;fontColor=default;" parent="1" source="4L6pKNZTm_Mj8XsBQi4F-83" edge="1">
          <mxGeometry width="50" height="50" relative="1" as="geometry">
            <mxPoint x="70" y="1480" as="sourcePoint" />
            <mxPoint x="120" y="1430" as="targetPoint" />
          </mxGeometry>
        </mxCell>
        <mxCell id="4L6pKNZTm_Mj8XsBQi4F-85" value="LOCAITON" style="ellipse;whiteSpace=wrap;html=1;labelBackgroundColor=none;fillColor=#FAE5C7;strokeColor=#0F8B8D;fontColor=#143642;" parent="1" vertex="1">
          <mxGeometry x="200" y="1480" width="120" height="80" as="geometry" />
        </mxCell>
        <mxCell id="4L6pKNZTm_Mj8XsBQi4F-86" value="" style="endArrow=none;html=1;rounded=0;exitX=0.419;exitY=0.04;exitDx=0;exitDy=0;exitPerimeter=0;labelBackgroundColor=none;strokeColor=#A8201A;fontColor=default;" parent="1" source="4L6pKNZTm_Mj8XsBQi4F-85" edge="1">
          <mxGeometry width="50" height="50" relative="1" as="geometry">
            <mxPoint x="130" y="1480" as="sourcePoint" />
            <mxPoint x="180" y="1430" as="targetPoint" />
          </mxGeometry>
        </mxCell>
        <mxCell id="4L6pKNZTm_Mj8XsBQi4F-87" value="PRICE&lt;div&gt;PER HOUR&lt;/div&gt;" style="ellipse;whiteSpace=wrap;html=1;labelBackgroundColor=none;fillColor=#FAE5C7;strokeColor=#0F8B8D;fontColor=#143642;" parent="1" vertex="1">
          <mxGeometry x="310" y="1240" width="120" height="80" as="geometry" />
        </mxCell>
        <mxCell id="4L6pKNZTm_Mj8XsBQi4F-88" value="" style="endArrow=none;html=1;rounded=0;entryX=0;entryY=0.5;entryDx=0;entryDy=0;labelBackgroundColor=none;strokeColor=#A8201A;fontColor=default;" parent="1" target="4L6pKNZTm_Mj8XsBQi4F-87" edge="1">
          <mxGeometry width="50" height="50" relative="1" as="geometry">
            <mxPoint x="180" y="1400" as="sourcePoint" />
            <mxPoint x="230" y="1350" as="targetPoint" />
          </mxGeometry>
        </mxCell>
        <mxCell id="4L6pKNZTm_Mj8XsBQi4F-89" value="SPORT&lt;div&gt;TYPE&lt;/div&gt;" style="ellipse;whiteSpace=wrap;html=1;labelBackgroundColor=none;fillColor=#FAE5C7;strokeColor=#0F8B8D;fontColor=#143642;" parent="1" vertex="1">
          <mxGeometry x="-120" y="1360" width="120" height="80" as="geometry" />
        </mxCell>
        <mxCell id="4L6pKNZTm_Mj8XsBQi4F-90" value="" style="endArrow=none;html=1;rounded=0;entryX=0;entryY=0.5;entryDx=0;entryDy=0;exitX=1;exitY=0.5;exitDx=0;exitDy=0;labelBackgroundColor=none;strokeColor=#A8201A;fontColor=default;" parent="1" source="4L6pKNZTm_Mj8XsBQi4F-89" target="4L6pKNZTm_Mj8XsBQi4F-76" edge="1">
          <mxGeometry width="50" height="50" relative="1" as="geometry">
            <mxPoint x="30" y="1400" as="sourcePoint" />
            <mxPoint x="50" y="1350" as="targetPoint" />
          </mxGeometry>
        </mxCell>
        <mxCell id="4L6pKNZTm_Mj8XsBQi4F-91" value="&lt;font style=&quot;font-size: 14px;&quot;&gt;OWNER&lt;/font&gt;" style="rounded=0;whiteSpace=wrap;html=1;labelBackgroundColor=none;fillColor=#FAE5C7;strokeColor=#0F8B8D;fontColor=#143642;" parent="1" vertex="1">
          <mxGeometry x="1255" y="1370" width="120" height="60" as="geometry" />
        </mxCell>
        <mxCell id="4L6pKNZTm_Mj8XsBQi4F-92" value="PHONE" style="ellipse;whiteSpace=wrap;html=1;labelBackgroundColor=none;fillColor=#FAE5C7;strokeColor=#0F8B8D;fontColor=#143642;" parent="1" vertex="1">
          <mxGeometry x="1080" y="1470" width="120" height="80" as="geometry" />
        </mxCell>
        <mxCell id="4L6pKNZTm_Mj8XsBQi4F-93" value="" style="endArrow=none;html=1;rounded=0;entryX=0;entryY=1;entryDx=0;entryDy=0;exitX=0.5;exitY=0;exitDx=0;exitDy=0;labelBackgroundColor=none;strokeColor=#A8201A;fontColor=default;" parent="1" source="4L6pKNZTm_Mj8XsBQi4F-92" target="4L6pKNZTm_Mj8XsBQi4F-91" edge="1">
          <mxGeometry width="50" height="50" relative="1" as="geometry">
            <mxPoint x="690" y="1480" as="sourcePoint" />
            <mxPoint x="730" y="1450" as="targetPoint" />
          </mxGeometry>
        </mxCell>
        <mxCell id="4L6pKNZTm_Mj8XsBQi4F-94" value="PASSWORD" style="ellipse;whiteSpace=wrap;html=1;labelBackgroundColor=none;fillColor=#FAE5C7;strokeColor=#0F8B8D;fontColor=#143642;" parent="1" vertex="1">
          <mxGeometry x="1240" y="1550" width="120" height="80" as="geometry" />
        </mxCell>
        <mxCell id="4L6pKNZTm_Mj8XsBQi4F-95" value="" style="endArrow=none;html=1;rounded=0;exitX=0.426;exitY=-0.049;exitDx=0;exitDy=0;exitPerimeter=0;labelBackgroundColor=none;strokeColor=#A8201A;fontColor=default;entryX=0.5;entryY=1;entryDx=0;entryDy=0;" parent="1" source="4L6pKNZTm_Mj8XsBQi4F-94" target="4L6pKNZTm_Mj8XsBQi4F-91" edge="1">
          <mxGeometry width="50" height="50" relative="1" as="geometry">
            <mxPoint x="750" y="1480" as="sourcePoint" />
            <mxPoint x="800" y="1430" as="targetPoint" />
          </mxGeometry>
        </mxCell>
        <mxCell id="4L6pKNZTm_Mj8XsBQi4F-96" value="" style="ellipse;whiteSpace=wrap;html=1;labelBackgroundColor=none;fillColor=#FAE5C7;strokeColor=#0F8B8D;fontColor=#143642;" parent="1" vertex="1">
          <mxGeometry x="1400" y="1520" width="120" height="80" as="geometry" />
        </mxCell>
        <mxCell id="4L6pKNZTm_Mj8XsBQi4F-97" value="" style="endArrow=none;html=1;rounded=0;entryX=0.5;entryY=0;entryDx=0;entryDy=0;exitX=1;exitY=1;exitDx=0;exitDy=0;labelBackgroundColor=none;strokeColor=#A8201A;fontColor=default;" parent="1" source="4L6pKNZTm_Mj8XsBQi4F-91" target="4L6pKNZTm_Mj8XsBQi4F-96" edge="1">
          <mxGeometry width="50" height="50" relative="1" as="geometry">
            <mxPoint x="860" y="1430" as="sourcePoint" />
            <mxPoint x="900" y="1380" as="targetPoint" />
          </mxGeometry>
        </mxCell>
        <mxCell id="4L6pKNZTm_Mj8XsBQi4F-98" value="&lt;u&gt;OWNER ID&lt;/u&gt;" style="ellipse;whiteSpace=wrap;html=1;labelBackgroundColor=none;fillColor=#FAE5C7;strokeColor=#0F8B8D;fontColor=#143642;" parent="1" vertex="1">
          <mxGeometry x="1450" y="1350" width="120" height="80" as="geometry" />
        </mxCell>
        <mxCell id="4L6pKNZTm_Mj8XsBQi4F-100" value="" style="endArrow=none;html=1;rounded=0;entryX=0;entryY=0.5;entryDx=0;entryDy=0;exitX=1;exitY=0.5;exitDx=0;exitDy=0;labelBackgroundColor=none;strokeColor=#A8201A;fontColor=default;" parent="1" source="4L6pKNZTm_Mj8XsBQi4F-91" target="4L6pKNZTm_Mj8XsBQi4F-98" edge="1">
          <mxGeometry width="50" height="50" relative="1" as="geometry">
            <mxPoint x="860" y="1400" as="sourcePoint" />
            <mxPoint x="910" y="1350" as="targetPoint" />
          </mxGeometry>
        </mxCell>
        <mxCell id="4L6pKNZTm_Mj8XsBQi4F-102" value="EMAIL" style="ellipse;whiteSpace=wrap;html=1;strokeColor=#0F8B8D;fontColor=#143642;fillColor=#FAE5C7;labelBackgroundColor=none;" parent="1" vertex="1">
          <mxGeometry x="1110" y="1240" width="120" height="80" as="geometry" />
        </mxCell>
        <mxCell id="4L6pKNZTm_Mj8XsBQi4F-103" value="" style="endArrow=none;html=1;rounded=0;strokeColor=#A8201A;fontColor=default;fillColor=#FAE5C7;entryX=0;entryY=0;entryDx=0;entryDy=0;exitX=1;exitY=1;exitDx=0;exitDy=0;labelBackgroundColor=none;" parent="1" source="4L6pKNZTm_Mj8XsBQi4F-102" target="4L6pKNZTm_Mj8XsBQi4F-91" edge="1">
          <mxGeometry width="50" height="50" relative="1" as="geometry">
            <mxPoint x="710" y="1330" as="sourcePoint" />
            <mxPoint x="760" y="1280" as="targetPoint" />
          </mxGeometry>
        </mxCell>
        <mxCell id="4L6pKNZTm_Mj8XsBQi4F-32" value="DOES" style="rhombus;whiteSpace=wrap;html=1;labelBackgroundColor=none;fillColor=#FAE5C7;strokeColor=#0F8B8D;fontColor=#143642;" parent="1" vertex="1">
          <mxGeometry x="730" y="190" width="80" height="80" as="geometry" />
        </mxCell>
        <mxCell id="4L6pKNZTm_Mj8XsBQi4F-118" value="&lt;font style=&quot;font-size: 36px;&quot;&gt;TURF BOOKING&lt;/font&gt;&lt;div&gt;&lt;font style=&quot;font-size: 36px;&quot;&gt;MANAGEMENT&lt;/font&gt;&lt;/div&gt;&lt;div&gt;&lt;font style=&quot;font-size: 36px;&quot;&gt;SYSTEM&lt;/font&gt;&lt;/div&gt;" style="rounded=1;whiteSpace=wrap;html=1;strokeColor=#0F8B8D;fontColor=#143642;fillColor=#FAE5C7;arcSize=0;labelBackgroundColor=none;" parent="1" vertex="1">
          <mxGeometry x="-620" y="155" width="350" height="240" as="geometry" />
        </mxCell>
        <mxCell id="4L6pKNZTm_Mj8XsBQi4F-124" value="OWNES" style="rhombus;whiteSpace=wrap;html=1;strokeColor=#0F8B8D;fontColor=#143642;fillColor=#FAE5C7;labelBackgroundColor=none;" parent="1" vertex="1">
          <mxGeometry x="730" y="1360" width="80" height="80" as="geometry" />
        </mxCell>
        <mxCell id="4L6pKNZTm_Mj8XsBQi4F-125" value="" style="endArrow=none;html=1;rounded=0;strokeColor=#A8201A;fontColor=default;fillColor=#FAE5C7;entryX=0;entryY=0.5;entryDx=0;entryDy=0;labelBackgroundColor=none;" parent="1" target="4L6pKNZTm_Mj8XsBQi4F-124" edge="1">
          <mxGeometry width="50" height="50" relative="1" as="geometry">
            <mxPoint x="180" y="1400" as="sourcePoint" />
            <mxPoint x="230" y="1350" as="targetPoint" />
          </mxGeometry>
        </mxCell>
        <mxCell id="4L6pKNZTm_Mj8XsBQi4F-126" value="" style="endArrow=none;html=1;rounded=0;strokeColor=#A8201A;fontColor=default;fillColor=#FAE5C7;entryX=0;entryY=0.5;entryDx=0;entryDy=0;exitX=1;exitY=0.5;exitDx=0;exitDy=0;labelBackgroundColor=none;" parent="1" source="4L6pKNZTm_Mj8XsBQi4F-124" target="4L6pKNZTm_Mj8XsBQi4F-91" edge="1">
          <mxGeometry width="50" height="50" relative="1" as="geometry">
            <mxPoint x="830" y="1430" as="sourcePoint" />
            <mxPoint x="770" y="1350" as="targetPoint" />
          </mxGeometry>
        </mxCell>
        <mxCell id="fxVBY0hmaQgAPk04bIL9-3" value="" style="endArrow=none;html=1;rounded=0;entryX=0;entryY=0;entryDx=0;entryDy=0;exitX=0.657;exitY=0.993;exitDx=0;exitDy=0;exitPerimeter=0;labelBackgroundColor=none;strokeColor=#A8201A;fontColor=default;" parent="1" source="fxVBY0hmaQgAPk04bIL9-4" target="4L6pKNZTm_Mj8XsBQi4F-76" edge="1">
          <mxGeometry width="50" height="50" relative="1" as="geometry">
            <mxPoint x="32.42640687119274" y="1308.284271247462" as="sourcePoint" />
            <mxPoint x="100" y="1270" as="targetPoint" />
          </mxGeometry>
        </mxCell>
        <mxCell id="fxVBY0hmaQgAPk04bIL9-4" value="&lt;br&gt;OWNER ID&lt;div&gt;&lt;br&gt;&lt;/div&gt;" style="ellipse;whiteSpace=wrap;html=1;labelBackgroundColor=none;fillColor=#FAE5C7;strokeColor=#0F8B8D;fontColor=#143642;" parent="1" vertex="1">
          <mxGeometry x="-60" y="1240" width="120" height="80" as="geometry" />
        </mxCell>
        <mxCell id="fxVBY0hmaQgAPk04bIL9-6" value="" style="endArrow=none;dashed=1;html=1;dashPattern=1 3;strokeWidth=2;rounded=0;labelBackgroundColor=none;strokeColor=#A8201A;fontColor=default;" parent="1" edge="1">
          <mxGeometry width="50" height="50" relative="1" as="geometry">
            <mxPoint x="-45" y="1288.82" as="sourcePoint" />
            <mxPoint x="45" y="1288.82" as="targetPoint" />
          </mxGeometry>
        </mxCell>
        <mxCell id="WNPm-9dFzksZWUwtxoDa-5" value="1" style="text;html=1;align=center;verticalAlign=middle;resizable=0;points=[];autosize=1;strokeColor=none;fillColor=none;labelBackgroundColor=none;fontColor=#143642;" parent="1" vertex="1">
          <mxGeometry x="210" y="200" width="30" height="30" as="geometry" />
        </mxCell>
        <mxCell id="WNPm-9dFzksZWUwtxoDa-6" value="M" style="text;html=1;align=center;verticalAlign=middle;resizable=0;points=[];autosize=1;strokeColor=none;fillColor=none;fontSize=26;labelBackgroundColor=none;fontColor=#143642;" parent="1" vertex="1">
          <mxGeometry x="1190" y="195" width="50" height="40" as="geometry" />
        </mxCell>
        <mxCell id="WNPm-9dFzksZWUwtxoDa-7" value="1" style="text;html=1;align=center;verticalAlign=middle;resizable=0;points=[];autosize=1;strokeColor=none;fillColor=none;fontSize=26;labelBackgroundColor=none;fontColor=#143642;" parent="1" vertex="1">
          <mxGeometry x="1315" y="255" width="40" height="40" as="geometry" />
        </mxCell>
        <mxCell id="WNPm-9dFzksZWUwtxoDa-8" value="1" style="text;html=1;align=center;verticalAlign=middle;resizable=0;points=[];autosize=1;strokeColor=none;fillColor=none;fontSize=26;labelBackgroundColor=none;fontColor=#143642;" parent="1" vertex="1">
          <mxGeometry x="1315" y="635" width="40" height="40" as="geometry" />
        </mxCell>
        <mxCell id="WNPm-9dFzksZWUwtxoDa-9" value="1" style="text;html=1;align=center;verticalAlign=middle;resizable=0;points=[];autosize=1;strokeColor=none;fillColor=none;fontSize=26;labelBackgroundColor=none;fontColor=#143642;" parent="1" vertex="1">
          <mxGeometry x="85" y="275" width="40" height="40" as="geometry" />
        </mxCell>
        <mxCell id="WNPm-9dFzksZWUwtxoDa-10" value="M" style="text;html=1;align=center;verticalAlign=middle;resizable=0;points=[];autosize=1;strokeColor=none;fillColor=none;fontSize=26;labelBackgroundColor=none;fontColor=#143642;" parent="1" vertex="1">
          <mxGeometry x="70" y="685" width="50" height="40" as="geometry" />
        </mxCell>
        <mxCell id="WNPm-9dFzksZWUwtxoDa-11" value="M" style="text;html=1;align=center;verticalAlign=middle;resizable=0;points=[];autosize=1;strokeColor=none;fillColor=none;labelBorderColor=default;fontSize=26;labelBackgroundColor=none;fontColor=#143642;" parent="1" vertex="1">
          <mxGeometry x="210" y="1360" width="50" height="40" as="geometry" />
        </mxCell>
        <mxCell id="WNPm-9dFzksZWUwtxoDa-12" value="1" style="text;html=1;align=center;verticalAlign=middle;resizable=0;points=[];autosize=1;strokeColor=none;fillColor=none;fontSize=26;labelBackgroundColor=none;fontColor=#143642;" parent="1" vertex="1">
          <mxGeometry x="1215" y="1355" width="40" height="40" as="geometry" />
        </mxCell>
        <mxCell id="WNPm-9dFzksZWUwtxoDa-13" value="" style="endArrow=none;dashed=1;html=1;dashPattern=1 3;strokeWidth=2;rounded=0;labelBackgroundColor=none;strokeColor=#A8201A;fontColor=default;" parent="1" edge="1">
          <mxGeometry width="50" height="50" relative="1" as="geometry">
            <mxPoint x="1170" y="400" as="sourcePoint" />
            <mxPoint x="1240" y="400" as="targetPoint" />
            <Array as="points">
              <mxPoint x="1210" y="400" />
            </Array>
          </mxGeometry>
        </mxCell>
        <mxCell id="WNPm-9dFzksZWUwtxoDa-14" value="" style="endArrow=none;html=1;rounded=0;exitX=1;exitY=0;exitDx=0;exitDy=0;labelBackgroundColor=none;strokeColor=#A8201A;fontColor=default;" parent="1" source="4L6pKNZTm_Mj8XsBQi4F-76" edge="1">
          <mxGeometry width="50" height="50" relative="1" as="geometry">
            <mxPoint x="390" y="1120" as="sourcePoint" />
            <mxPoint x="1240" y="260" as="targetPoint" />
          </mxGeometry>
        </mxCell>
        <mxCell id="WNPm-9dFzksZWUwtxoDa-17" value="&lt;font style=&quot;font-size: 26px;&quot;&gt;M&lt;/font&gt;" style="text;html=1;align=center;verticalAlign=middle;resizable=0;points=[];autosize=1;strokeColor=none;fillColor=none;labelBackgroundColor=none;fontColor=#143642;" parent="1" vertex="1">
          <mxGeometry x="1220" y="255" width="50" height="40" as="geometry" />
        </mxCell>
        <mxCell id="WNPm-9dFzksZWUwtxoDa-20" value="1" style="text;whiteSpace=wrap;html=1;fontSize=26;labelBackgroundColor=none;fontColor=#143642;" parent="1" vertex="1">
          <mxGeometry x="180" y="1310" width="40" height="40" as="geometry" />
        </mxCell>
        <mxCell id="WNPm-9dFzksZWUwtxoDa-26" value="&#xa;&lt;span style=&quot;color: rgb(20, 54, 66); font-family: Helvetica; font-size: 12px; font-style: normal; font-variant-ligatures: normal; font-variant-caps: normal; font-weight: 400; letter-spacing: normal; orphans: 2; text-align: center; text-indent: 0px; text-transform: none; widows: 2; word-spacing: 0px; -webkit-text-stroke-width: 0px; white-space: normal; background-color: rgb(251, 251, 251); text-decoration-thickness: initial; text-decoration-style: initial; text-decoration-color: initial; display: inline !important; float: none;&quot;&gt;PHONE&lt;/span&gt;&#xa;&#xa;" style="ellipse;whiteSpace=wrap;html=1;fillColor=#FAE5C7;strokeColor=#0F8B8D;labelBackgroundColor=none;fontColor=#143642;" parent="1" vertex="1">
          <mxGeometry x="80" y="100" width="80" height="40" as="geometry" />
        </mxCell>
        <mxCell id="WNPm-9dFzksZWUwtxoDa-28" value="LOCATION" style="ellipse;whiteSpace=wrap;html=1;fillColor=#FAE5C7;strokeColor=#0F8B8D;labelBackgroundColor=none;fontColor=#143642;" parent="1" vertex="1">
          <mxGeometry x="1415" y="1535" width="90" height="50" as="geometry" />
        </mxCell>
        <mxCell id="WNPm-9dFzksZWUwtxoDa-30" value="SCHEDULE" style="ellipse;whiteSpace=wrap;html=1;align=center;dashed=1;strokeColor=#0F8B8D;fontColor=#143642;fillColor=#FAE5C7;" parent="1" vertex="1">
          <mxGeometry x="1470" y="70" width="140" height="80" as="geometry" />
        </mxCell>
        <mxCell id="WNPm-9dFzksZWUwtxoDa-34" value="" style="endArrow=none;html=1;rounded=0;strokeColor=#A8201A;fontColor=#143642;fillColor=#FAE5C7;" parent="1" edge="1">
          <mxGeometry width="50" height="50" relative="1" as="geometry">
            <mxPoint x="240" y="560" as="sourcePoint" />
            <mxPoint x="290" y="510" as="targetPoint" />
          </mxGeometry>
        </mxCell>
        <mxCell id="WNPm-9dFzksZWUwtxoDa-35" value="" style="endArrow=none;html=1;rounded=0;strokeColor=#A8201A;fontColor=#143642;fillColor=#FAE5C7;" parent="1" edge="1">
          <mxGeometry width="50" height="50" relative="1" as="geometry">
            <mxPoint x="240" y="560" as="sourcePoint" />
            <mxPoint x="290" y="510" as="targetPoint" />
          </mxGeometry>
        </mxCell>
        <mxCell id="WNPm-9dFzksZWUwtxoDa-36" value="" style="endArrow=none;html=1;rounded=0;strokeColor=#A8201A;fontColor=#143642;fillColor=#FAE5C7;entryX=0;entryY=0.5;entryDx=0;entryDy=0;" parent="1" target="4L6pKNZTm_Mj8XsBQi4F-1" edge="1">
          <mxGeometry width="50" height="50" relative="1" as="geometry">
            <mxPoint x="-30" y="240" as="sourcePoint" />
            <mxPoint x="60" y="230" as="targetPoint" />
          </mxGeometry>
        </mxCell>
        <mxCell id="WNPm-9dFzksZWUwtxoDa-37" value="AGE" style="ellipse;whiteSpace=wrap;html=1;align=center;dashed=1;strokeColor=#0F8B8D;fontColor=#143642;fillColor=#FAE5C7;" parent="1" vertex="1">
          <mxGeometry x="-160" y="210" width="130" height="60" as="geometry" />
        </mxCell>
        <mxCell id="WNPm-9dFzksZWUwtxoDa-38" value="" style="endArrow=none;dashed=1;html=1;dashPattern=1 3;strokeWidth=2;rounded=0;strokeColor=#A8201A;fontColor=#143642;fillColor=#FAE5C7;" parent="1" edge="1">
          <mxGeometry width="50" height="50" relative="1" as="geometry">
            <mxPoint x="265" y="809.17" as="sourcePoint" />
            <mxPoint x="355" y="809.17" as="targetPoint" />
          </mxGeometry>
        </mxCell>
        <mxCell id="WNPm-9dFzksZWUwtxoDa-40" value="Attribute" style="ellipse;whiteSpace=wrap;html=1;align=center;dashed=1;strokeColor=#0F8B8D;fontColor=#143642;fillColor=#FAE5C7;" parent="1" vertex="1">
          <mxGeometry x="-800" y="530" width="170" height="110" as="geometry" />
        </mxCell>
        <mxCell id="WNPm-9dFzksZWUwtxoDa-41" value="DERIVED ATTRIBUTES&lt;div&gt;&lt;br&gt;&lt;/div&gt;" style="text;html=1;align=center;verticalAlign=middle;whiteSpace=wrap;rounded=0;fontColor=#143642;" parent="1" vertex="1">
          <mxGeometry x="-600" y="570" width="130" height="30" as="geometry" />
        </mxCell>
        <mxCell id="WNPm-9dFzksZWUwtxoDa-42" value="" style="ellipse;whiteSpace=wrap;html=1;strokeColor=#0F8B8D;fontColor=#143642;fillColor=#FAE5C7;" parent="1" vertex="1">
          <mxGeometry x="-805" y="670" width="180" height="115" as="geometry" />
        </mxCell>
        <mxCell id="WNPm-9dFzksZWUwtxoDa-43" value="" style="ellipse;whiteSpace=wrap;html=1;strokeColor=#0F8B8D;fontColor=#143642;fillColor=#FAE5C7;" parent="1" vertex="1">
          <mxGeometry x="-775" y="687.5" width="120" height="80" as="geometry" />
        </mxCell>
        <mxCell id="WNPm-9dFzksZWUwtxoDa-44" value="&lt;div&gt;MULTIVALUED&amp;nbsp;&lt;/div&gt;&lt;div&gt;ATTRIBUTE&lt;/div&gt;" style="text;html=1;align=center;verticalAlign=middle;whiteSpace=wrap;rounded=0;fontColor=#143642;" parent="1" vertex="1">
          <mxGeometry x="-600" y="710" width="130" height="30" as="geometry" />
        </mxCell>
      </root>
    </mxGraphModel>
  </diagram>
</mxfile>
